<svg width="24" height="24" viewBox="0 0 24 24" fill="none" xmlns="http://www.w3.org/2000/svg">
  <rect width="24" height="24" fill="#fff" />
  <path
    d="M18.4 20.8H5.59999V19.2C5.59999 18.1391 6.02142 17.1217 6.77156 16.3716C7.52171 15.6214 8.53913 15.2 9.59999 15.2H14.4C15.4609 15.2 16.4783 15.6214 17.2284 16.3716C17.9786 17.1217 18.4 18.1391 18.4 19.2V20.8ZM12 13.6C11.3696 13.6 10.7455 13.4758 10.1631 13.2346C9.58075 12.9934 9.0516 12.6398 8.60588 12.1941C8.16016 11.7484 7.80659 11.2192 7.56537 10.6369C7.32415 10.0545 7.19999 9.43034 7.19999 8.8C7.19999 8.16965 7.32415 7.54548 7.56537 6.96312C7.80659 6.38076 8.16016 5.85161 8.60588 5.40589C9.0516 4.96017 9.58075 4.6066 10.1631 4.36538C10.7455 4.12416 11.3696 4 12 4C13.273 4 14.4939 4.50571 15.3941 5.40589C16.2943 6.30606 16.8 7.52696 16.8 8.8C16.8 10.073 16.2943 11.2939 15.3941 12.1941C14.4939 13.0943 13.273 13.6 12 13.6V13.6Z"
    fill="#DB4A63" />
</svg>
